# xmcd CD database file
#
# Track frame offsets:
#	150
#	19501
#	35246
#	54936
#	76044
#	88544
#	107800
#	119734
#	134559
#	147244
#
# Disc length: 2177 seconds
#
# Revision: 4
# Processed by: cddbd v1.5.2PL0 Copyright (c) Steve Scherf et al.
# Submitted via: CDex 1.70beta3
#
DISCID=84087f0a
DTITLE=Jennifer Warnes - Shot Through the Heart
DYEAR=1979
DGENRE=AOR
TTITLE0=Shot Through the Heart
TTITLE1=I Know a Heartache When I See One
TTITLE2=Don't Make Me Over
TTITLE3=You Remember Me
TTITLE4=Sign on the Window
TTITLE5=I'm Restless
TTITLE6=Tell Me Just One More Time
TTITLE7=When the Feeling Comes Around
TTITLE8=Frankie in the Rain
TTITLE9=Hard Times, Come Again No More
EXTD=YEAR: 1979
EXTT0=
EXTT1=
EXTT2=
EXTT3=
EXTT4=
EXTT5=
EXTT6=
EXTT7=
EXTT8=
EXTT9=
PLAYORDER=
